# xmcd
#
# Track frame offsets: 
#        150
#        16540
#        32815
#        51784
#        73553
#        90209
#        111689
#        132494
#        158159
#        174213
#
# Disc length: 2658 seconds
#
# Revision: 2
# Processed by: cddbd v1.5.2PL0 Copyright (c) Steve Scherf et al.
# Submitted via: ExactAudioCopy v0.95a5
#
DISCID=770a600a
DTITLE=Kim Hill - Real Christmas
DYEAR=2004
DGENRE=Christian Rock
TTITLE0=Angels We Have Heard On High
TTITLE1=O Come, O Come Emmanuel
TTITLE2=I Wonder As I Wander
TTITLE3=O Come All Ye Faithful
TTITLE4=O Holy Night
TTITLE5=Gift Of Love
TTITLE6=He Is The King
TTITLE7=What Child Is This?
TTITLE8=God Rest Ye Merry Gentlemen
TTITLE9=Silent Night
EXTD=
EXTT0=
EXTT1=
EXTT2=
EXTT3=
EXTT4=
EXTT5=
EXTT6=
EXTT7=
EXTT8=
EXTT9=
PLAYORDER=
